
<svg xmlns="http://www.w3.org/2000/svg" version="1.1" xmlns:xlink="http://www.w3.org/1999/xlink" preserveAspectRatio="none" x="0px" y="0px" width="750px" height="100px" viewBox="0 0 750 100">
<defs>
<g id="Layer1_0_FILL">
<path fill="#FF6699" stroke="none" d="
M 157.95 39.55
L 128.1 39.55 128.1 34.6 157.95 34.6 157.95 19.65 103.25 19.65 103.25 84.35 128.1 84.35 128.1 64.45 157.95 64.45 157.95 39.55
M 217.35 34.6
L 217.35 19.65 162.65 19.65 162.65 84.35 217.35 84.35 217.35 69.4 187.5 69.4 187.5 64.45 217.35 64.45 217.35 39.55 187.5 39.55 187.5 34.6 217.35 34.6
M 276.8 39.55
L 246.95 39.55 246.95 34.6 276.8 34.6 276.8 19.65 222.1 19.65 222.1 84.35 276.8 84.35 276.8 69.4 246.95 69.4 246.95 64.45 276.8 64.45 276.8 39.55
M 341.25 29.6
L 326.3 19.65 281.55 19.65 281.55 84.35 341.25 84.35 341.25 29.6
M 306.4 34.6
L 316.35 39.55 316.35 69.4 306.4 69.4 306.4 34.6
M 415.7 19.65
L 405.75 24.65 405.75 19.65 380.85 19.65 380.85 24.65 370.9 19.65 346.05 19.65 346.05 84.35 370.9 84.35 370.9 44.55 380.85 49.5 380.85 84.35 405.75 84.35 405.75 49.5 415.7 44.55 415.7 84.35 440.55 84.35 440.55 19.65 415.7 19.65
M 505.1 84.35
L 505.1 19.65 480.2 19.65 480.2 39.55 470.25 34.6 470.25 19.65 445.4 19.65 445.4 54.5 480.2 69.4 445.4 69.4 445.4 84.35 505.1 84.35
M 544.75 34.6
L 554.7 34.6 554.7 19.65 509.95 19.65 509.95 34.6 519.9 34.6 519.9 84.35 544.75 84.35 544.75 34.6
M 594.85 64.5
L 594.85 84.35 619.75 84.35 619.75 59.45 605.1 59.45 619.75 52.25 619.75 19.65 560.05 19.65 560.05 84.35 584.9 84.35 584.9 69.4 594.85 64.5
M 594.85 39.55
L 584.9 44.55 584.9 34.6 594.85 34.6 594.85 39.55
M 649.4 84.35
L 649.4 19.65 624.55 19.65 624.55 84.35 649.4 84.35
M 654.3 84.35
L 679.15 84.35 679.15 69.4 714 52.25 714 19.65 654.3 19.65 654.3 84.35
M 689.1 34.6
L 689.1 39.55 679.15 44.55 679.15 34.6 689.1 34.6
M 738.3 19.65
Q 735.5 18.15 732.65 18.15 729.7 18.15 726.95 19.65 724.25 21.1 722.75 23.85 721.15 26.6 721.15 29.6 721.15 32.55 722.65 35.25 724.15 38.05 726.9 39.5 729.6 41.1 732.65 41.1 735.55 41.1 738.35 39.5 741.1 38.05 742.5 35.25 744.1 32.55 744.1 29.6 744.1 26.6 742.5 23.85 741 21.1 738.3 19.65
M 732.65 20
Q 734.95 20 737.3 21.25 739.55 22.5 740.95 24.85 742.15 27.1 742.15 29.6 742.15 32.05 740.95 34.35 739.65 36.55 737.4 37.9 735.1 39.1 732.65 39.1 730.15 39.1 727.85 37.9 725.6 36.55 724.3 34.35 723.05 32.05 723.05 29.6 723.05 27.1 724.3 24.85 725.7 22.5 727.95 21.25 730.2 20 732.65 20
M 734.95 23.95
Q 734 23.55 731.8 23.55
L 727.55 23.55 727.55 35.95 729.55 35.95 729.55 30.75 730.75 30.75
Q 731.8 30.75 732.3 31.05 733.15 31.65 734.35 34
L 735.5 35.95 737.9 35.95 736.4 33.45
Q 735.35 31.8 734.6 31.05 734.2 30.75 733.6 30.45 735.2 30.3 736.15 29.3 737.1 28.25 737.1 26.95 737.1 26 736.5 25.15 735.95 24.25 734.95 23.95
M 734.95 27.1
Q 734.95 27.95 734.35 28.4 733.7 28.95 731.95 28.95
L 729.55 28.95 729.55 25.3 731.8 25.3
Q 733.3 25.3 733.85 25.45 734.35 25.7 734.65 26.15 734.95 26.5 734.95 27.1 Z"/>
</g>

<g id="Layer1_1_MEMBER_0_FILL">
<path fill="#FF6699" stroke="none" d="
M 46.45 90.8
Q 45.95 92 47.25 92.55
L 52.1 93.75
Q 52.9 93.95 53.45 93.15
L 53.75 92.4
Q 53.95 91.5 53 90.95
L 48.6 88.6
Q 47.55 88.1 46.9 89.45
L 46.45 90.8
M 52.9 84.9
Q 52.4 84.4 51.8 85.15
L 51.35 85.75
Q 50.8 86.5 51.55 87.05
L 54.2 88.55
Q 54.55 88.7 55 88.4
L 55.35 88
Q 55.8 87.55 55.25 87.05
L 52.9 84.9
M 106.9 96.6
Q 106.6 96.9 106.6 97.65 106.6 98.4 107.2 99.05 107.5 99.55 107.95 99.8 107.65 100.4 107.65 101 107.5 102.25 106.9 103.25 106.9 103.35 106.85 103.55 105.1 105.15 101.35 105
L 101.25 105 101.25 98.2
Q 101.25 92.6 98.9 87.25 102.4 81.9 101.65 75.85 98.15 80.55 93.25 81.25 87.4 76.55 79.6 76.55
L 79.15 76.55
Q 70.55 76.55 65.5 81.7 59.85 81.75 54.25 76 54.55 82.75 59.85 88.3 57.5 92.6 57.5 98.2
L 57.5 105
Q 53.95 105 52.4 103.55 52.3 103.35 52.15 103.25 51.65 102.25 51.55 101 51.4 100.4 51.25 99.8 51.65 99.55 52.1 99.05 52.45 98.4 52.7 97.65 52.7 96.9 52.15 96.6 51.8 96.15 51.05 96.45 50.5 96.7 49.8 97.35 49.75 97.5 49.5 97.75 48.4 97 46.9 97.2 46.8 97.35 46.75 97.35 46.2 96.6 45.5 96.15 44.9 95.95 44.3 96.15 43.85 96.6 43.85 97.2 43.8 97.95 44.15 98.75 44.1 98.75 44.1 98.8 43.8 99.25 43.4 99.85 43.1 99.85 42.8 99.85 42.05 99.85 41.9 100.45 41.65 101 41.9 101.5 42.05 102.2 42.8 102.55 43.1 102.7 43.35 102.8 43.8 105.5 44.9 107.65
L 45 107.65
Q 45.45 108.3 45.95 108.75 49.35 113.45 57.5 113.45
L 57.5 116.35
Q 56.45 116.35 55.25 116.7 52.45 117.15 50.55 118.25 44.45 120.9 44.7 132.35 44.7 132.75 44.7 133.2 44.3 133.05 43.85 133.05 42.75 133.05 42 133.8 41.2 134.55 41.2 135.45 41.2 136.5 42 137.25 42.75 138 43.85 138 44.45 138 44.9 137.7 45.2 138.25 45.5 138.55 46.3 139.3 47.25 139.3 48.3 139.3 49 138.55 49.45 138.25 49.5 137.55 49.95 137.55 50.2 137.55 52.4 137.55 53.95 136 55 134.85 55.35 133.5 55.4 133.05 55.4 132.45 55.4 132.35 55.4 132.15 55.4 128.75 56.1 127.6 56.45 127.4 57 127.3 58.5 127.1 59.7 127.3 59.85 127.3 59.95 127.3 61.45 130.1 63.9 132.5 70.1 138.9 79.15 138.9
L 79.6 138.9
Q 88.65 138.9 94.9 132.5 97.2 130.25 98.6 127.6 99.2 127.6 99.95 127.6
L 100.15 127.6
Q 100.5 127.85 100.95 127.85 101.55 127.9 102 128.15 102.6 129.25 102.6 132.65 102.6 134.95 104.2 136.5 105.65 138.25 107.9 138.25 108.05 138.25 108.2 138.25 108.4 138.6 108.8 139.15 109.55 139.9 110.45 139.9 111.65 139.9 112.4 139.15 112.7 138.75 112.8 138.3 113.3 138.55 114.1 138.55 115 138.55 115.75 137.8 116.5 137.05 116.5 136.15 116.5 134.95 115.75 134.25 115 133.5 114.1 133.5 113.65 133.5 113.3 133.55 113.3 133.25 113.3 132.9 113.55 121.5 107.45 118.85 105.5 117.65 102.85 117.15 102.1 117 101.5 117
L 101.35 117
Q 101.35 116.9 101.25 116.9
L 101.25 113.45
Q 109.8 113.65 113.3 108.75 113.85 108.3 114.15 107.65 115.45 105.5 115.9 102.8 116.2 102.7 116.25 102.55 117 102.2 117.25 101.5 117.6 101 117.3 100.45 117 99.85 116.25 99.85 116.05 99.85 115.75 99.85 115.5 99.25 115.15 98.8
L 115 98.75
Q 115.45 97.95 115.45 97.2 115.35 96.6 114.85 96.15 114.3 95.95 113.65 96.15 112.95 96.6 112.55 97.35 112.5 97.35 112.2 97.2 110.9 97 109.65 97.75 109.55 97.5 109.35 97.35 108.8 96.7 108.05 96.45 107.45 96.15 106.9 96.6
M 90.25 86.3
Q 94.55 90.75 94.55 96.85 94.55 98.25 94.25 99.65 93.5 104.1 90.25 107.4 85.8 111.7 79.6 111.7 73.45 111.7 69.05 107.4 65.75 104.1 64.9 99.65 64.7 98.25 64.7 96.85 64.7 90.75 69.05 86.3 73.45 81.9 79.6 81.9 85.8 81.9 90.25 86.3
M 67.7 115.55
L 66.35 116.2 68.45 113.3
Q 71.85 115.85 75.6 116.7 77.4 117 79.1 117
L 79.45 117
Q 81.2 117 82.85 116.7 86.65 115.85 90.25 113.3
L 92.3 116.2 90.85 115.55
Q 90.75 115.6 90.4 115.9 87.4 117.8 83.85 118.55 79.15 119.7 74.8 118.65 74.65 118.65 74.65 118.55 71.1 117.8 68.05 115.9 67.85 115.6 67.7 115.55
M 74.5 121.45
Q 74.1 121.45 74.1 121.2 74.05 121.15 74.05 120.9 74.05 120.65 74.35 120.6 74.5 120.6 74.55 120.6 79.6 121.6 84.35 120.6 84.45 120.45 84.5 120.6 84.8 120.65 84.8 120.75 84.8 120.9 84.75 121.2 84.75 121.3 84.45 121.3 79.6 122.55 74.5 121.45
M 87.15 97
Q 87.15 93.95 84.95 91.65 82.8 89.45 79.6 89.45 76.5 89.45 74.1 91.65 71.9 93.95 71.9 97 71.9 98.05 72.2 98.95 72.65 100.85 74.1 102.5 76.15 104.4 78.8 104.7 79.15 104.7 79.6 104.7 80 104.7 80.45 104.7 82.95 104.4 84.95 102.5 86.55 100.85 87.1 98.95 87.15 98.05 87.15 97
M 110.9 89.45
Q 110.3 88.1 109.1 88.6
L 104.75 90.95
Q 103.75 91.5 104.2 92.4
L 104.4 93.15
Q 105.05 93.95 105.85 93.75
L 110.45 92.55
Q 111.9 92 111.45 90.8
L 110.9 89.45
M 106.6 85.75
L 106 85.15
Q 105.5 84.4 104.95 84.9
L 102.7 87.05
Q 102.1 87.55 102.4 88
L 102.85 88.4
Q 103.15 88.7 103.65 88.55
L 106.4 87.05
Q 107.15 86.5 106.6 85.75 Z"/>
</g>
</defs>

<g transform="matrix( 1, 0, 0, 1, 0,0) ">
<use xlink:href="#Layer1_0_FILL"/>
</g>

<g transform="matrix( 1, 0, 0, 1, -23,-56) ">
<use xlink:href="#Layer1_1_MEMBER_0_FILL"/>
</g>
</svg>
